<svg width="27" height="28" viewBox="0 0 27 28" fill="none" xmlns="http://www.w3.org/2000/svg">
<g opacity="0.61">
<path d="M22.7497 0C24.3314 0 25.6072 1.3265 25.6825 2.8875V28L22.6709 25.3482L21.0172 23.7872L19.2127 22.1562L19.9664 24.7287H4.17366C2.59641 24.7287 1.31616 23.4862 1.31616 21.84V2.89333C1.31616 1.33233 2.59866 0.0035 4.17929 0.0035H22.7418L22.7497 0ZM15.8669 6.63017H15.8332L15.6059 6.8635C17.938 7.5635 19.0664 8.65667 19.0664 8.65667C17.5634 7.87733 16.2089 7.48767 14.8544 7.33017C13.8757 7.17267 12.8969 7.2555 12.07 7.33017H11.845C11.3163 7.33017 10.1913 7.5635 8.68379 8.18767C8.15841 8.4245 7.85691 8.57967 7.85691 8.57967C7.85691 8.57967 8.98416 7.41067 11.4682 6.7865L11.3163 6.629C11.3163 6.629 9.43529 6.55433 7.40466 8.11067C7.40466 8.11067 5.37404 11.7787 5.37404 16.3007C5.37404 16.3007 6.49904 18.3307 9.58491 18.4077C9.58491 18.4077 10.0349 17.7858 10.4905 17.2387C8.75804 16.6927 8.08304 15.6007 8.08304 15.6007C8.08304 15.6007 8.23379 15.6777 8.45991 15.834H8.52741C8.56116 15.834 8.57691 15.8515 8.59491 15.869V15.876C8.61291 15.8947 8.62866 15.911 8.66241 15.911C9.03366 16.0697 9.40491 16.226 9.70866 16.3777C10.2329 16.6133 10.9068 16.8478 11.7337 17.003C12.7799 17.1605 13.9792 17.2363 15.3449 17.003C16.0199 16.8455 16.6949 16.6915 17.3699 16.3788C17.8087 16.1455 18.3487 15.9122 18.9415 15.519C18.9415 15.519 18.2665 16.611 16.4609 17.157C16.8322 17.7007 17.3553 18.3237 17.3553 18.3237C20.4423 18.2537 21.6415 16.2237 21.709 16.31C21.709 11.795 19.6672 8.12 19.6672 8.12C17.8278 6.70367 16.1065 6.65 15.8028 6.65L15.8658 6.62667L15.8669 6.63017ZM16.0559 11.7787C16.8468 11.7787 17.4847 12.4787 17.4847 13.3362C17.4847 14.1995 16.8434 14.8995 16.0559 14.8995C15.2684 14.8995 14.6272 14.1995 14.6272 13.3432C14.6294 12.4798 15.2718 11.7822 16.0559 11.7822V11.7787ZM10.945 11.7787C11.7325 11.7787 12.3693 12.4787 12.3693 13.3362C12.3693 14.1995 11.728 14.8995 10.9405 14.8995C10.153 14.8995 9.51179 14.1995 9.51179 13.3432C9.51179 12.4798 10.153 11.7822 10.9405 11.7822L10.945 11.7787Z" fill="url(#paint0_linear)"/>
<path d="M22.7497 0C24.3314 0 25.6072 1.3265 25.6825 2.8875V28L22.6709 25.3482L21.0172 23.7872L19.2127 22.1562L19.9664 24.7287H4.17366C2.59641 24.7287 1.31616 23.4862 1.31616 21.84V2.89333C1.31616 1.33233 2.59866 0.0035 4.17929 0.0035H22.7418L22.7497 0ZM15.8669 6.63017H15.8332L15.6059 6.8635C17.938 7.5635 19.0664 8.65667 19.0664 8.65667C17.5634 7.87733 16.2089 7.48767 14.8544 7.33017C13.8757 7.17267 12.8969 7.2555 12.07 7.33017H11.845C11.3163 7.33017 10.1913 7.5635 8.68379 8.18767C8.15841 8.4245 7.85691 8.57967 7.85691 8.57967C7.85691 8.57967 8.98416 7.41067 11.4682 6.7865L11.3163 6.629C11.3163 6.629 9.43529 6.55433 7.40466 8.11067C7.40466 8.11067 5.37404 11.7787 5.37404 16.3007C5.37404 16.3007 6.49904 18.3307 9.58491 18.4077C9.58491 18.4077 10.0349 17.7858 10.4905 17.2387C8.75804 16.6927 8.08304 15.6007 8.08304 15.6007C8.08304 15.6007 8.23379 15.6777 8.45991 15.834H8.52741C8.56116 15.834 8.57691 15.8515 8.59491 15.869V15.876C8.61291 15.8947 8.62866 15.911 8.66241 15.911C9.03366 16.0697 9.40491 16.226 9.70866 16.3777C10.2329 16.6133 10.9068 16.8478 11.7337 17.003C12.7799 17.1605 13.9792 17.2363 15.3449 17.003C16.0199 16.8455 16.6949 16.6915 17.3699 16.3788C17.8087 16.1455 18.3487 15.9122 18.9415 15.519C18.9415 15.519 18.2665 16.611 16.4609 17.157C16.8322 17.7007 17.3553 18.3237 17.3553 18.3237C20.4423 18.2537 21.6415 16.2237 21.709 16.31C21.709 11.795 19.6672 8.12 19.6672 8.12C17.8278 6.70367 16.1065 6.65 15.8028 6.65L15.8658 6.62667L15.8669 6.63017ZM16.0559 11.7787C16.8468 11.7787 17.4847 12.4787 17.4847 13.3362C17.4847 14.1995 16.8434 14.8995 16.0559 14.8995C15.2684 14.8995 14.6272 14.1995 14.6272 13.3432C14.6294 12.4798 15.2718 11.7822 16.0559 11.7822V11.7787ZM10.945 11.7787C11.7325 11.7787 12.3693 12.4787 12.3693 13.3362C12.3693 14.1995 11.728 14.8995 10.9405 14.8995C10.153 14.8995 9.51179 14.1995 9.51179 13.3432C9.51179 12.4798 10.153 11.7822 10.9405 11.7822L10.945 11.7787Z" fill="url(#paint1_linear)"/>
</g>
<defs>
<linearGradient id="paint0_linear" x1="13.4993" y1="0" x2="13.4993" y2="31.6734" gradientUnits="userSpaceOnUse">
<stop stop-color="#608CFF"/>
<stop offset="1" stop-color="#23336D"/>
</linearGradient>
<linearGradient id="paint1_linear" x1="13.4993" y1="0" x2="27.4268" y2="29.1103" gradientUnits="userSpaceOnUse">
<stop stop-color="#608CFF"/>
<stop offset="1" stop-color="#23336D"/>
</linearGradient>
</defs>
</svg>
