<svg width="509" height="60" viewBox="0 0 509 60" fill="none" xmlns="http://www.w3.org/2000/svg">
<path d="M24.144 8.242C18.896 8.242 14.9327 9.44466 12.254 11.85C9.63 14.2007 8.318 17.6447 8.318 22.182V28.742H34.558V35.794H8.318V59H0.118001V22.1C0.118001 15.4853 2.19533 10.3193 6.35 6.602C10.5593 2.83 16.4087 0.944 23.898 0.944C27.178 0.944 30.2393 1.32667 33.082 2.092C35.9247 2.80266 38.3847 3.86866 40.462 5.29L37.756 12.096C34.0933 9.52666 29.556 8.242 24.144 8.242ZM85.0245 8.734V51.866H96.0945V59H65.7545V51.866H76.8245V8.734H65.7545V1.6H96.0945V8.734H85.0245ZM155.467 0.944C162.355 0.944 167.74 3.02133 171.621 7.176C175.502 11.3307 177.443 17.262 177.443 24.97V59H169.325V25.216C169.325 19.64 167.958 15.4307 165.225 12.588C162.492 9.69066 158.692 8.242 153.827 8.242C148.579 8.242 144.452 9.77267 141.445 12.834C138.438 15.8953 136.935 20.4327 136.935 26.446V59H128.735V1.6H136.607V9.718C140.488 3.86867 146.775 0.944 155.467 0.944ZM238.767 0.944C246.42 0.944 252.461 3.18533 256.889 7.668C261.317 12.096 263.531 18.4647 263.531 26.774V59H255.331V43.174H222.203V59H214.167V26.774C214.167 18.4647 216.381 12.096 220.809 7.668C225.237 3.18533 231.223 0.944 238.767 0.944ZM255.331 36.04V26.036C255.331 20.1867 253.855 15.7587 250.903 12.752C248.005 9.74533 243.96 8.242 238.767 8.242C233.573 8.242 229.501 9.74533 226.549 12.752C223.651 15.7587 222.203 20.1867 222.203 26.036V36.04H255.331ZM327.475 0.944C334.363 0.944 339.747 3.02133 343.629 7.176C347.51 11.3307 349.451 17.262 349.451 24.97V59H341.333V25.216C341.333 19.64 339.966 15.4307 337.233 12.588C334.499 9.69066 330.7 8.242 325.835 8.242C320.587 8.242 316.459 9.77267 313.453 12.834C310.446 15.8953 308.943 20.4327 308.943 26.446V59H300.743V1.6H308.615V9.718C312.496 3.86867 318.783 0.944 327.475 0.944ZM412.333 59.656C406.593 59.656 401.399 58.3987 396.753 55.884C392.161 53.3147 388.553 49.816 385.929 45.388C383.305 40.9053 381.993 35.876 381.993 30.3C381.993 24.724 383.305 19.722 385.929 15.294C388.553 10.8113 392.188 7.31267 396.835 4.798C401.481 2.22867 406.675 0.944 412.415 0.944C416.897 0.944 420.997 1.70933 424.715 3.24C428.432 4.716 431.603 6.93 434.227 9.882L428.897 15.048C424.578 10.5107 419.193 8.242 412.743 8.242C408.479 8.242 404.625 9.19866 401.181 11.112C397.737 13.0253 395.031 15.6767 393.063 19.066C391.149 22.4007 390.193 26.1453 390.193 30.3C390.193 34.4547 391.149 38.2267 393.063 41.616C395.031 44.9507 397.737 47.5747 401.181 49.488C404.625 51.4013 408.479 52.358 412.743 52.358C419.139 52.358 424.523 50.062 428.897 45.47L434.227 50.636C431.603 53.588 428.405 55.8293 424.633 57.36C420.915 58.8907 416.815 59.656 412.333 59.656ZM508.186 53.014C505.726 55.0913 502.5 56.7313 498.51 57.934C494.519 59.082 490.173 59.656 485.472 59.656C480.224 59.656 475.768 58.9727 472.106 57.606C468.443 56.1847 465.682 54.244 463.824 51.784C461.965 49.324 461.036 46.4813 461.036 43.256C461.036 39.976 461.965 37.1607 463.824 34.81C465.737 32.4047 468.197 30.6827 471.204 29.644C468.798 28.5507 466.912 26.9107 465.546 24.724C464.179 22.4827 463.496 19.9133 463.496 17.016C463.496 14.0093 464.343 11.3033 466.038 8.898C467.787 6.49266 470.411 4.57933 473.91 3.158C477.408 1.682 481.672 0.944 486.702 0.944C490.255 0.944 493.699 1.32667 497.034 2.092C500.423 2.85733 503.348 3.95067 505.808 5.372L503.43 11.932C498.51 9.308 493.043 7.996 487.03 7.996C482.055 7.996 478.256 8.898 475.632 10.702C473.008 12.4513 471.696 14.7473 471.696 17.59C471.696 20.4327 472.707 22.6193 474.73 24.15C476.752 25.6807 479.65 26.446 483.422 26.446H498.182V33.498H483.094C478.775 33.498 475.386 34.2633 472.926 35.794C470.466 37.3247 469.236 39.6207 469.236 42.682C469.236 45.798 470.63 48.2307 473.418 49.98C476.206 51.7293 480.36 52.604 485.882 52.604C489.708 52.604 493.344 52.0847 496.788 51.046C500.286 49.9527 503.156 48.4767 505.398 46.618L508.186 53.014Z" fill="white"/>
</svg>
