<svg width="174" height="214" viewBox="0 0 174 214" fill="none" xmlns="http://www.w3.org/2000/svg">
<path d="M88.6767 42.8L173.018 84.7608V86.8588L86.9983 43.6392L88.6767 42.8Z" fill="#3757B1"/>
<path d="M84.4807 41.9608L170.5 85.1804V171.2L84.4807 127.98V41.9608Z" fill="url(#paint0_linear)"/>
<path d="M92.4287 90.8432L130.679 109.961L168.929 90.8432L130.679 71.7257L92.4287 90.8432Z" fill="url(#paint1_linear)"/>
<path d="M92.4287 129.032L130.679 148.149V109.961L92.4287 90.8433V129.032Z" fill="url(#paint2_linear)"/>
<path d="M130.679 148.149L168.929 129.032V90.8433L130.679 109.961V148.149Z" fill="url(#paint3_linear)"/>
<path d="M0.926758 112.612L17.3729 120.799L33.819 112.612L17.3729 104.379L0.926758 112.612Z" fill="url(#paint4_linear)"/>
<path d="M0.926758 129.032L17.3729 137.218V120.799L0.926758 112.612V129.032Z" fill="url(#paint5_linear)"/>
<path d="M17.3728 137.218L33.8189 129.032V112.612L17.3728 120.799V137.218Z" fill="url(#paint6_linear)"/>
<path d="M24.175 124.194L63.8228 144.01L80.2689 135.823L40.6212 116.008L24.175 124.194Z" fill="url(#paint7_linear)"/>
<path d="M24.175 140.614L63.8228 160.429V144.01L24.175 124.194V140.614Z" fill="url(#paint8_linear)"/>
<path d="M63.8228 160.429L80.2689 152.243V135.823L63.8228 144.01V160.429Z" fill="url(#paint9_linear)"/>
<path d="M92.4287 135.823L108.875 144.01L125.321 135.823L108.875 127.59L92.4287 135.823Z" fill="url(#paint10_linear)"/>
<path d="M92.4287 152.243L108.875 160.429V144.01L92.4287 135.823V152.243Z" fill="url(#paint11_linear)"/>
<path d="M108.875 160.429L125.321 152.243V135.823L108.875 144.01V160.429Z" fill="url(#paint12_linear)"/>
<path d="M0.926758 89.4013L17.3729 97.6344L33.819 89.4013L17.3729 81.2147L0.926758 89.4013Z" fill="url(#paint13_linear)"/>
<path d="M0.926758 105.821L17.3729 114.054V97.6344L0.926758 89.4013V105.821Z" fill="url(#paint14_linear)"/>
<path d="M17.3728 114.054L33.8189 105.821V89.4013L17.3728 97.6344V114.054Z" fill="url(#paint15_linear)"/>
<path d="M24.175 100.983L40.6212 109.217L57.0673 100.983L40.6212 92.7968L24.175 100.983Z" fill="#0AC1A2"/>
<path d="M24.175 117.45L40.6212 125.636V109.217L24.175 100.983V117.45Z" fill="url(#paint16_linear)"/>
<path d="M40.6211 125.636L57.0672 117.45V100.983L40.6211 109.217V125.636Z" fill="#0DF5CF"/>
<path d="M92.4287 112.612L108.875 120.799L125.321 112.612L108.875 104.379L92.4287 112.612Z" fill="#0AC1A2"/>
<path d="M92.4287 129.032L108.875 137.218V120.799L92.4287 112.612V129.032Z" fill="#0DF5CF"/>
<path d="M108.875 137.218L125.321 129.032V112.612L108.875 120.799V137.218Z" fill="url(#paint17_linear)"/>
<path d="M47.3767 112.612L63.8228 120.799L80.269 112.612L63.8228 104.379L47.3767 112.612Z" fill="#0AC1A2"/>
<path d="M47.3767 129.032L63.8229 137.218V120.799L47.3767 112.612V129.032Z" fill="url(#paint18_linear)"/>
<path d="M63.8228 137.218L80.2689 129.032V112.612L63.8228 120.799V137.218Z" fill="#0DF5CF"/>
<path d="M70.6248 124.194L87.0709 132.427L103.517 124.194L87.0709 116.008L70.6248 124.194Z" fill="#0AC1A2"/>
<path d="M70.6248 163.825L87.0709 172.058V132.427L70.6248 124.194V163.825Z" fill="url(#paint19_linear)"/>
<path d="M87.0708 172.058L103.517 163.825V124.194L87.0708 132.427V172.058Z" fill="url(#paint20_linear)"/>
<path d="M0.926758 66.1904L40.6211 86.0057L57.0672 77.8191L17.3729 58.0038L0.926758 66.1904Z" fill="url(#paint21_linear)"/>
<path d="M0.926758 66.1904L40.6211 86.0057L57.0672 77.8191L17.3729 58.0038L0.926758 66.1904Z" fill="url(#paint22_linear)"/>
<path d="M0.926758 82.6101L40.6211 102.425V86.0057L0.926758 66.1904V82.6101Z" fill="url(#paint23_linear)"/>
<path d="M0.926758 82.6101L40.6211 102.425V86.0057L0.926758 66.1904V82.6101Z" fill="url(#paint24_linear)"/>
<path d="M40.6211 102.425L57.0672 94.2388V77.8191L40.6211 86.0057V102.425Z" fill="url(#paint25_linear)"/>
<path d="M40.6211 102.425L57.0672 94.2388V77.8191L40.6211 86.0057V102.425Z" fill="url(#paint26_linear)"/>
<path d="M114.233 77.8191L130.679 86.0057L147.125 77.8191L130.679 69.586L114.233 77.8191Z" fill="url(#paint27_linear)"/>
<path d="M114.233 94.2388L130.679 102.425V86.0057L114.233 77.8191V94.2388Z" fill="url(#paint28_linear)"/>
<path d="M92.4287 89.4012L108.875 97.6344L125.321 89.4012L108.875 81.2147L92.4287 89.4012Z" fill="url(#paint29_linear)"/>
<path d="M92.4287 105.821L108.875 114.054V97.6344L92.4287 89.4013V105.821Z" fill="url(#paint30_linear)"/>
<path d="M92.4287 105.821L108.875 114.054V97.6344L92.4287 89.4013V105.821Z" fill="url(#paint31_linear)"/>
<path d="M108.875 114.054L125.321 105.821V89.4013L108.875 97.6344V114.054Z" fill="url(#paint32_linear)"/>
<path d="M108.875 114.054L125.321 105.821V89.4013L108.875 97.6344V114.054Z" fill="url(#paint33_linear)"/>
<path d="M47.3767 89.4012L63.8228 97.6344L80.269 89.4012L63.8228 81.2147L47.3767 89.4012Z" fill="url(#paint34_linear)"/>
<path d="M47.3767 105.821L63.8229 114.054V97.6344L47.3767 89.4013V105.821Z" fill="url(#paint35_linear)"/>
<path d="M63.8228 114.054L80.2689 105.821V89.4013L63.8228 97.6344V114.054Z" fill="url(#paint36_linear)"/>
<path d="M63.8228 114.054L80.2689 105.821V89.4013L63.8228 97.6344V114.054Z" fill="url(#paint37_linear)"/>
<path d="M70.6248 100.983L87.0709 109.217L103.517 100.983L87.0709 92.7968L70.6248 100.983Z" fill="url(#paint38_linear)"/>
<path d="M70.6248 117.45L87.0709 125.636V109.217L70.6248 100.983V117.45Z" fill="url(#paint39_linear)"/>
<path d="M70.6248 117.45L87.0709 125.636V109.217L70.6248 100.983V117.45Z" fill="url(#paint40_linear)"/>
<path d="M87.0708 125.636L103.517 117.45V100.983L87.0708 109.217V125.636Z" fill="url(#paint41_linear)"/>
<path d="M87.0708 125.636L103.517 117.45V100.983L87.0708 109.217V125.636Z" fill="url(#paint42_linear)"/>
<path d="M66.3386 8.2331L106.033 28.0019L122.479 19.8153L82.7847 0L66.3386 8.2331Z" fill="url(#paint43_linear)"/>
<path d="M66.3386 24.6528L106.033 44.4681V28.0019L66.3386 8.23312V24.6528Z" fill="url(#paint44_linear)"/>
<path d="M66.3386 24.6528L106.033 44.4681V28.0019L66.3386 8.23312V24.6528Z" fill="url(#paint45_linear)"/>
<path d="M106.033 44.468L122.479 36.2349V19.8152L106.033 28.0018V44.468Z" fill="url(#paint46_linear)"/>
<path d="M106.033 44.468L122.479 36.2349V19.8152L106.033 28.0018V44.468Z" fill="url(#paint47_linear)"/>
<path d="M44.5347 19.8153L60.9808 28.0018L77.4269 19.8153L60.9808 11.5822L44.5347 19.8153Z" fill="url(#paint48_linear)"/>
<path d="M44.5347 36.2349L60.9808 44.468V28.0018L44.5347 19.8152V36.2349Z" fill="url(#paint49_linear)"/>
<path d="M44.5347 36.2349L60.9808 44.468V28.0018L44.5347 19.8152V36.2349Z" fill="url(#paint50_linear)"/>
<path d="M60.9807 44.468L77.4268 36.2349V19.8152L60.9807 28.0018V44.468Z" fill="url(#paint51_linear)"/>
<path d="M60.9807 44.468L77.4268 36.2349V19.8152L60.9807 28.0018V44.468Z" fill="url(#paint52_linear)"/>
<path d="M22.7307 31.3974L39.1768 39.6305L55.623 31.3974L39.1768 23.2108L22.7307 31.3974Z" fill="url(#paint53_linear)"/>
<path d="M22.7307 47.8171L39.1768 56.0502V39.6305L22.7307 31.3974V47.8171Z" fill="url(#paint54_linear)"/>
<path d="M22.7307 47.8171L39.1768 56.0502V39.6305L22.7307 31.3974V47.8171Z" fill="url(#paint55_linear)"/>
<path d="M39.1768 56.0502L55.6229 47.8171V31.3974L39.1768 39.6305V56.0502Z" fill="url(#paint56_linear)"/>
<path d="M39.1768 56.0502L55.6229 47.8171V31.3974L39.1768 39.6305V56.0502Z" fill="url(#paint57_linear)"/>
<path d="M0.926758 43.0261L17.3729 51.2127L33.819 43.0261L17.3729 34.793L0.926758 43.0261Z" fill="url(#paint58_linear)"/>
<path d="M0.926758 43.0261L17.3729 51.2127L33.819 43.0261L17.3729 34.793L0.926758 43.0261Z" fill="url(#paint59_linear)"/>
<path d="M0.926758 59.4458L17.3729 67.6324V51.2127L0.926758 43.0261V59.4458Z" fill="url(#paint60_linear)"/>
<path d="M0.926758 59.4458L17.3729 67.6324V51.2127L0.926758 43.0261V59.4458Z" fill="url(#paint61_linear)"/>
<path d="M17.3728 67.6324L33.8189 59.4458V43.0261L17.3728 51.2127V67.6324Z" fill="url(#paint62_linear)"/>
<path d="M17.3728 67.6324L33.8189 59.4458V43.0261L17.3728 51.2127V67.6324Z" fill="url(#paint63_linear)"/>
<path d="M67.783 31.3974L84.2291 39.6305L100.675 31.3974L84.2291 23.2108L67.783 31.3974Z" fill="url(#paint64_linear)"/>
<path d="M67.783 47.8171L84.2291 56.0502V39.6305L67.783 31.3974V47.8171Z" fill="url(#paint65_linear)"/>
<path d="M67.783 47.8171L84.2291 56.0502V39.6305L67.783 31.3974V47.8171Z" fill="url(#paint66_linear)"/>
<path d="M84.229 56.0502L100.675 47.8171V31.3974L84.229 39.6305V56.0502Z" fill="url(#paint67_linear)"/>
<path d="M45.979 43.0261L62.4251 51.2127L78.8712 43.0261L62.4251 34.793L45.979 43.0261Z" fill="url(#paint68_linear)"/>
<path d="M45.979 43.0261L62.4251 51.2127L78.8712 43.0261L62.4251 34.793L45.979 43.0261Z" fill="url(#paint69_linear)"/>
<path d="M45.979 59.4458L62.4251 67.6324V51.2127L45.979 43.0261V59.4458Z" fill="url(#paint70_linear)"/>
<path d="M45.979 59.4458L62.4251 67.6324V51.2127L45.979 43.0261V59.4458Z" fill="url(#paint71_linear)"/>
<path d="M62.425 67.6324L78.8711 59.4458V43.0261L62.425 51.2127V67.6324Z" fill="url(#paint72_linear)"/>
<path d="M62.425 67.6324L78.8711 59.4458V43.0261L62.425 51.2127V67.6324Z" fill="url(#paint73_linear)"/>
<path d="M24.175 54.6083L40.6212 62.8414L57.0673 54.6083L40.6212 46.3752L24.175 54.6083Z" fill="url(#paint74_linear)"/>
<path d="M24.175 71.028L40.6212 79.2611V62.8414L24.175 54.6083V71.028Z" fill="url(#paint75_linear)"/>
<path d="M40.6211 79.2611L57.0672 71.028V54.6083L40.6211 62.8414V79.2611Z" fill="url(#paint76_linear)"/>
<path d="M40.6211 79.2611L57.0672 71.028V54.6083L40.6211 62.8414V79.2611Z" fill="url(#paint77_linear)"/>
<path d="M112.835 31.3974L129.281 39.6305L145.727 31.3974L129.281 23.2108L112.835 31.3974Z" fill="url(#paint78_linear)"/>
<path d="M112.835 47.8171L129.281 56.0502V39.6305L112.835 31.3974V47.8171Z" fill="url(#paint79_linear)"/>
<path d="M112.835 47.8171L129.281 56.0502V39.6305L112.835 31.3974V47.8171Z" fill="url(#paint80_linear)"/>
<path d="M129.281 56.0502L145.727 47.8171V31.3974L129.281 39.6305V56.0502Z" fill="url(#paint81_linear)"/>
<path d="M129.281 56.0502L145.727 47.8171V31.3974L129.281 39.6305V56.0502Z" fill="url(#paint82_linear)"/>
<path d="M136.037 43.0261L152.483 51.2127L168.929 43.0261L152.483 34.793L136.037 43.0261Z" fill="url(#paint83_linear)"/>
<path d="M136.037 83.502L152.483 91.6885V51.2127L136.037 43.0261V83.502Z" fill="url(#paint84_linear)"/>
<path d="M136.037 83.502L152.483 91.6885V51.2127L136.037 43.0261V83.502Z" fill="url(#paint85_linear)"/>
<path d="M152.483 91.8941L168.929 83.7075V43.0261L152.483 51.2127L152.483 91.8941Z" fill="url(#paint86_linear)"/>
<path d="M152.483 91.8941L168.929 83.7075V43.0261L152.483 51.2127L152.483 91.8941Z" fill="url(#paint87_linear)"/>
<path d="M90.9844 43.0261L130.679 62.8414L147.125 54.6083L107.43 34.793L90.9844 43.0261Z" fill="url(#paint88_linear)"/>
<path d="M90.9844 59.4458L130.679 79.261V62.8414L90.9844 43.0261V59.4458Z" fill="url(#paint89_linear)"/>
<path d="M130.679 79.261L147.125 71.0279V54.6082L130.679 62.8414V79.261Z" fill="url(#paint90_linear)"/>
<path d="M130.679 79.261L147.125 71.0279V54.6082L130.679 62.8414V79.261Z" fill="url(#paint91_linear)"/>
<path d="M69.1807 54.6083L85.6268 62.8414L102.073 54.6083L85.6268 46.3752L69.1807 54.6083Z" fill="url(#paint92_linear)"/>
<path d="M69.1807 71.028L85.6268 79.2611V62.8414L69.1807 54.6083V71.028Z" fill="url(#paint93_linear)"/>
<path d="M69.1807 71.028L85.6268 79.2611V62.8414L69.1807 54.6083V71.028Z" fill="url(#paint94_linear)"/>
<path d="M85.6267 79.2611L102.073 71.028V54.6083L85.6267 62.8414V79.2611Z" fill="url(#paint95_linear)"/>
<path d="M85.6267 79.2611L102.073 71.028V54.6083L85.6267 62.8414V79.2611Z" fill="url(#paint96_linear)"/>
<path d="M47.3767 66.1904L63.8228 74.4235L80.269 66.1904L63.8228 58.0038L47.3767 66.1904Z" fill="url(#paint97_linear)"/>
<path d="M47.3767 82.6101L63.8229 90.8432V74.4235L47.3767 66.1904V82.6101Z" fill="url(#paint98_linear)"/>
<path d="M47.3767 82.6101L63.8229 90.8432V74.4235L47.3767 66.1904V82.6101Z" fill="url(#paint99_linear)"/>
<path d="M63.8228 90.8432L80.2689 82.6101V66.1904L63.8228 74.4235V90.8432Z" fill="url(#paint100_linear)"/>
<path d="M63.8228 90.8432L80.2689 82.6101V66.1904L63.8228 74.4235V90.8432Z" fill="url(#paint101_linear)"/>
<path d="M70.6248 77.8191L87.0709 86.0057L125.321 66.1904L108.875 58.0038L70.6248 77.8191Z" fill="url(#paint102_linear)"/>
<path d="M70.6248 94.2388L87.0709 102.425V86.0057L70.6248 77.8191V94.2388Z" fill="url(#paint103_linear)"/>
<path d="M87.0708 102.425L125.321 82.6101V66.1904L87.0708 86.0057V102.425Z" fill="url(#paint104_linear)"/>
<path d="M87.0708 102.425L125.321 82.6101V66.1904L87.0708 86.0057V102.425Z" fill="url(#paint105_linear)"/>
<path d="M2.65719 83.9216L86.9984 125.882V127.98L0.97876 84.7608L2.65719 83.9216Z" fill="#3757B1"/>
<path d="M171.34 83.9216L86.9985 125.882V127.98L173.018 84.7608L171.34 83.9216Z" fill="#4876EB"/>
<path d="M0.97876 84.7608L86.9984 127.98V214L0.97876 170.78V84.7608Z" fill="url(#paint106_linear)"/>
<path d="M173.018 84.7608L86.9982 127.98V214L170.5 172.045C170.549 172.021 170.596 171.996 170.643 171.971C173.023 170.684 173.153 168.259 173.018 167.843V84.7608Z" fill="url(#paint107_linear)"/>
<defs>
<linearGradient id="paint0_linear" x1="127.491" y1="65.4588" x2="127.491" y2="185.073" gradientUnits="userSpaceOnUse">
<stop stop-color="#4775EB"/>
<stop offset="1" stop-color="#271A54"/>
</linearGradient>
<linearGradient id="paint1_linear" x1="130.694" y1="109.941" x2="130.694" y2="71.7476" gradientUnits="userSpaceOnUse">
<stop stop-color="#F73669"/>
<stop offset="1" stop-color="#DA2C5A"/>
</linearGradient>
<linearGradient id="paint2_linear" x1="130.694" y1="119.486" x2="92.4471" y2="119.486" gradientUnits="userSpaceOnUse">
<stop stop-color="#4918AE"/>
<stop offset="1" stop-color="#4918AE"/>
</linearGradient>
<linearGradient id="paint3_linear" x1="168.941" y1="119.486" x2="130.694" y2="119.486" gradientUnits="userSpaceOnUse">
<stop stop-color="#864EFC"/>
<stop offset="1" stop-color="#6A24FC"/>
</linearGradient>
<linearGradient id="paint4_linear" x1="33.8232" y1="112.604" x2="0.926619" y2="112.604" gradientUnits="userSpaceOnUse">
<stop stop-color="#6B24FF"/>
<stop offset="1" stop-color="#4818AB"/>
</linearGradient>
<linearGradient id="paint5_linear" x1="17.3749" y1="124.922" x2="0.926618" y2="124.922" gradientUnits="userSpaceOnUse">
<stop stop-color="#864EFC"/>
<stop offset="1" stop-color="#6A24FC"/>
</linearGradient>
<linearGradient id="paint6_linear" x1="33.8231" y1="124.922" x2="17.3749" y2="124.922" gradientUnits="userSpaceOnUse">
<stop stop-color="#864EFC"/>
<stop offset="1" stop-color="#6A24FC"/>
</linearGradient>
<linearGradient id="paint7_linear" x1="52.2208" y1="144.015" x2="52.2208" y2="115.991" gradientUnits="userSpaceOnUse">
<stop stop-color="#6A24FC"/>
<stop offset="1" stop-color="#4918AE"/>
</linearGradient>
<linearGradient id="paint8_linear" x1="63.836" y1="142.32" x2="24.1573" y2="142.32" gradientUnits="userSpaceOnUse">
<stop stop-color="#4918AE"/>
<stop offset="1" stop-color="#4918AE"/>
</linearGradient>
<linearGradient id="paint9_linear" x1="80.2842" y1="148.12" x2="63.8359" y2="148.12" gradientUnits="userSpaceOnUse">
<stop stop-color="#864EFC"/>
<stop offset="1" stop-color="#6A24FC"/>
</linearGradient>
<linearGradient id="paint10_linear" x1="108.875" y1="144.015" x2="108.875" y2="127.59" gradientUnits="userSpaceOnUse">
<stop stop-color="#FFFDF5"/>
<stop offset="1" stop-color="#F3E5A5"/>
</linearGradient>
<linearGradient id="paint11_linear" x1="108.875" y1="148.12" x2="92.4268" y2="148.12" gradientUnits="userSpaceOnUse">
<stop stop-color="#F3E5A5"/>
<stop offset="1" stop-color="#F4C15B"/>
</linearGradient>
<linearGradient id="paint12_linear" x1="124.932" y1="148.12" x2="108.747" y2="148.12" gradientUnits="userSpaceOnUse">
<stop stop-color="#F49D5B"/>
<stop offset="1" stop-color="#F4C15B"/>
</linearGradient>
<linearGradient id="paint13_linear" x1="33.8232" y1="89.4062" x2="0.926619" y2="89.4062" gradientUnits="userSpaceOnUse">
<stop stop-color="#6B24FF"/>
<stop offset="1" stop-color="#4818AB"/>
</linearGradient>
<linearGradient id="paint14_linear" x1="17.3748" y1="101.723" x2="0.926618" y2="101.723" gradientUnits="userSpaceOnUse">
<stop stop-color="#864EFC"/>
<stop offset="1" stop-color="#6A24FC"/>
</linearGradient>
<linearGradient id="paint15_linear" x1="33.8231" y1="101.723" x2="17.3748" y2="101.723" gradientUnits="userSpaceOnUse">
<stop stop-color="#864EFC"/>
<stop offset="1" stop-color="#6A24FC"/>
</linearGradient>
<linearGradient id="paint16_linear" x1="40.6054" y1="113.323" x2="24.1572" y2="113.323" gradientUnits="userSpaceOnUse">
<stop stop-color="#F3E5A5"/>
<stop offset="1" stop-color="#F4C15B"/>
</linearGradient>
<linearGradient id="paint17_linear" x1="124.932" y1="124.922" x2="108.747" y2="124.922" gradientUnits="userSpaceOnUse">
<stop stop-color="#F49D5B"/>
<stop offset="1" stop-color="#F4C15B"/>
</linearGradient>
<linearGradient id="paint18_linear" x1="63.8359" y1="124.922" x2="47.3877" y2="124.922" gradientUnits="userSpaceOnUse">
<stop stop-color="#F3E5A5"/>
<stop offset="1" stop-color="#F4C15B"/>
</linearGradient>
<linearGradient id="paint19_linear" x1="87.0663" y1="148.12" x2="70.618" y2="148.12" gradientUnits="userSpaceOnUse">
<stop stop-color="#F3E5A5"/>
<stop offset="1" stop-color="#F4C15B"/>
</linearGradient>
<linearGradient id="paint20_linear" x1="103.123" y1="148.12" x2="86.9378" y2="148.12" gradientUnits="userSpaceOnUse">
<stop stop-color="#F49D5B"/>
<stop offset="1" stop-color="#F4C15B"/>
</linearGradient>
<linearGradient id="paint21_linear" x1="29.0003" y1="86.0225" x2="29.0003" y2="58.011" gradientUnits="userSpaceOnUse">
<stop stop-color="#6A24FC"/>
<stop offset="1" stop-color="#4918AE"/>
</linearGradient>
<linearGradient id="paint22_linear" x1="29.0087" y1="85.9937" x2="29.0087" y2="57.9822" gradientUnits="userSpaceOnUse">
<stop stop-color="#0DF9D2"/>
<stop offset="1" stop-color="#0BDBB9"/>
</linearGradient>
<linearGradient id="paint23_linear" x1="20.7607" y1="102.447" x2="20.7607" y2="66.1997" gradientUnits="userSpaceOnUse">
<stop stop-color="#6A24FC"/>
<stop offset="1" stop-color="#4918AE"/>
</linearGradient>
<linearGradient id="paint24_linear" x1="20.7822" y1="102.41" x2="20.7822" y2="66.1624" gradientUnits="userSpaceOnUse">
<stop stop-color="#10E9C5"/>
<stop offset="1" stop-color="#0AC6A7"/>
</linearGradient>
<linearGradient id="paint25_linear" x1="57.0712" y1="90.1201" x2="40.6231" y2="90.1201" gradientUnits="userSpaceOnUse">
<stop stop-color="#864EFC"/>
<stop offset="1" stop-color="#6A24FC"/>
</linearGradient>
<linearGradient id="paint26_linear" x1="48.8476" y1="102.415" x2="48.8476" y2="77.8001" gradientUnits="userSpaceOnUse">
<stop stop-color="#0DDAB8"/>
<stop offset="1" stop-color="#08AF94"/>
</linearGradient>
<linearGradient id="paint27_linear" x1="130.685" y1="85.9973" x2="130.685" y2="69.5954" gradientUnits="userSpaceOnUse">
<stop stop-color="#F73669"/>
<stop offset="1" stop-color="#DA2C5A"/>
</linearGradient>
<linearGradient id="paint28_linear" x1="122.459" y1="102.413" x2="122.459" y2="77.8332" gradientUnits="userSpaceOnUse">
<stop stop-color="#F73669"/>
<stop offset="1" stop-color="#DA2C5A"/>
</linearGradient>
<linearGradient id="paint29_linear" x1="108.856" y1="97.6273" x2="108.856" y2="81.202" gradientUnits="userSpaceOnUse">
<stop stop-color="#38E6FD"/>
<stop offset="1" stop-color="#31C3D7"/>
</linearGradient>
<linearGradient id="paint30_linear" x1="108.856" y1="101.732" x2="92.4077" y2="101.732" gradientUnits="userSpaceOnUse">
<stop stop-color="#F3E5A5"/>
<stop offset="1" stop-color="#F4C15B"/>
</linearGradient>
<linearGradient id="paint31_linear" x1="100.642" y1="114.044" x2="100.642" y2="89.3822" gradientUnits="userSpaceOnUse">
<stop stop-color="#38E6FD"/>
<stop offset="1" stop-color="#31C3D7"/>
</linearGradient>
<linearGradient id="paint32_linear" x1="125.333" y1="95.6068" x2="108.885" y2="95.6068" gradientUnits="userSpaceOnUse">
<stop stop-color="#864EFC"/>
<stop offset="1" stop-color="#6A24FC"/>
</linearGradient>
<linearGradient id="paint33_linear" x1="117.088" y1="101.809" x2="117.088" y2="89.3917" gradientUnits="userSpaceOnUse">
<stop stop-color="#31CEE2"/>
<stop offset="1" stop-color="#2AA9BA"/>
</linearGradient>
<linearGradient id="paint34_linear" x1="63.804" y1="97.6273" x2="63.804" y2="81.202" gradientUnits="userSpaceOnUse">
<stop stop-color="#38E6FD"/>
<stop offset="1" stop-color="#31C3D7"/>
</linearGradient>
<linearGradient id="paint35_linear" x1="55.5903" y1="114.044" x2="55.5903" y2="89.3822" gradientUnits="userSpaceOnUse">
<stop stop-color="#38E6FD"/>
<stop offset="1" stop-color="#31C3D7"/>
</linearGradient>
<linearGradient id="paint36_linear" x1="79.8923" y1="101.736" x2="63.7074" y2="101.736" gradientUnits="userSpaceOnUse">
<stop stop-color="#F49D5B"/>
<stop offset="1" stop-color="#F4C15B"/>
</linearGradient>
<linearGradient id="paint37_linear" x1="72.0364" y1="114.044" x2="72.0364" y2="89.3822" gradientUnits="userSpaceOnUse">
<stop stop-color="#31CEE2"/>
<stop offset="1" stop-color="#2AA9BA"/>
</linearGradient>
<linearGradient id="paint38_linear" x1="87.052" y1="109.21" x2="87.052" y2="92.7841" gradientUnits="userSpaceOnUse">
<stop stop-color="#38E6FD"/>
<stop offset="1" stop-color="#31C3D7"/>
</linearGradient>
<linearGradient id="paint39_linear" x1="87.052" y1="113.314" x2="70.6037" y2="113.314" gradientUnits="userSpaceOnUse">
<stop stop-color="#F3E5A5"/>
<stop offset="1" stop-color="#F4C15B"/>
</linearGradient>
<linearGradient id="paint40_linear" x1="78.8384" y1="125.626" x2="78.8384" y2="100.964" gradientUnits="userSpaceOnUse">
<stop stop-color="#38E6FD"/>
<stop offset="1" stop-color="#31C3D7"/>
</linearGradient>
<linearGradient id="paint41_linear" x1="103.529" y1="107.189" x2="87.0807" y2="107.189" gradientUnits="userSpaceOnUse">
<stop stop-color="#864EFC"/>
<stop offset="1" stop-color="#6A24FC"/>
</linearGradient>
<linearGradient id="paint42_linear" x1="95.2844" y1="113.391" x2="95.2844" y2="100.974" gradientUnits="userSpaceOnUse">
<stop stop-color="#31CEE2"/>
<stop offset="1" stop-color="#2AA9BA"/>
</linearGradient>
<linearGradient id="paint43_linear" x1="94.4205" y1="27.9899" x2="94.4205" y2="-0.0216566" gradientUnits="userSpaceOnUse">
<stop stop-color="#0DF9D2"/>
<stop offset="1" stop-color="#0BDBB9"/>
</linearGradient>
<linearGradient id="paint44_linear" x1="86.1726" y1="44.4898" x2="86.1726" y2="8.24236" gradientUnits="userSpaceOnUse">
<stop stop-color="#6A24FC"/>
<stop offset="1" stop-color="#4918AE"/>
</linearGradient>
<linearGradient id="paint45_linear" x1="86.194" y1="44.4526" x2="86.194" y2="8.2051" gradientUnits="userSpaceOnUse">
<stop stop-color="#10E9C5"/>
<stop offset="1" stop-color="#0AC6A7"/>
</linearGradient>
<linearGradient id="paint46_linear" x1="122.48" y1="32.1289" x2="106.032" y2="32.1289" gradientUnits="userSpaceOnUse">
<stop stop-color="#864EFC"/>
<stop offset="1" stop-color="#6A24FC"/>
</linearGradient>
<linearGradient id="paint47_linear" x1="114.259" y1="44.4575" x2="114.259" y2="19.7962" gradientUnits="userSpaceOnUse">
<stop stop-color="#0DDAB8"/>
<stop offset="1" stop-color="#08AF94"/>
</linearGradient>
<linearGradient id="paint48_linear" x1="60.9619" y1="27.9948" x2="60.9619" y2="11.5695" gradientUnits="userSpaceOnUse">
<stop stop-color="#38E6FD"/>
<stop offset="1" stop-color="#31C3D7"/>
</linearGradient>
<linearGradient id="paint49_linear" x1="60.9924" y1="32.1289" x2="44.5441" y2="32.1289" gradientUnits="userSpaceOnUse">
<stop stop-color="#F3E5A5"/>
<stop offset="1" stop-color="#F4C15B"/>
</linearGradient>
<linearGradient id="paint50_linear" x1="52.7483" y1="44.4575" x2="52.7483" y2="19.7962" gradientUnits="userSpaceOnUse">
<stop stop-color="#38E6FD"/>
<stop offset="1" stop-color="#31C3D7"/>
</linearGradient>
<linearGradient id="paint51_linear" x1="77.0489" y1="32.1289" x2="60.864" y2="32.1289" gradientUnits="userSpaceOnUse">
<stop stop-color="#F49D5B"/>
<stop offset="1" stop-color="#F4C15B"/>
</linearGradient>
<linearGradient id="paint52_linear" x1="69.1943" y1="44.4575" x2="69.1943" y2="19.7962" gradientUnits="userSpaceOnUse">
<stop stop-color="#31CEE2"/>
<stop offset="1" stop-color="#2AA9BA"/>
</linearGradient>
<linearGradient id="paint53_linear" x1="39.1837" y1="39.6235" x2="39.1837" y2="23.1981" gradientUnits="userSpaceOnUse">
<stop stop-color="#0DF9D2"/>
<stop offset="1" stop-color="#0BDBB9"/>
</linearGradient>
<linearGradient id="paint54_linear" x1="30.9483" y1="56.065" x2="30.9483" y2="31.4037" gradientUnits="userSpaceOnUse">
<stop stop-color="#6A24FC"/>
<stop offset="1" stop-color="#4918AE"/>
</linearGradient>
<linearGradient id="paint55_linear" x1="30.9572" y1="56.0397" x2="30.9572" y2="31.3784" gradientUnits="userSpaceOnUse">
<stop stop-color="#10E9C5"/>
<stop offset="1" stop-color="#0AC6A7"/>
</linearGradient>
<linearGradient id="paint56_linear" x1="55.6318" y1="43.7281" x2="39.1836" y2="43.7281" gradientUnits="userSpaceOnUse">
<stop stop-color="#864EFC"/>
<stop offset="1" stop-color="#6A24FC"/>
</linearGradient>
<linearGradient id="paint57_linear" x1="47.4032" y1="56.0397" x2="47.4032" y2="31.3784" gradientUnits="userSpaceOnUse">
<stop stop-color="#0DDAB8"/>
<stop offset="1" stop-color="#08AF94"/>
</linearGradient>
<linearGradient id="paint58_linear" x1="17.3748" y1="51.2226" x2="17.3748" y2="34.7972" gradientUnits="userSpaceOnUse">
<stop stop-color="#6A24FC"/>
<stop offset="1" stop-color="#4918AE"/>
</linearGradient>
<linearGradient id="paint59_linear" x1="17.3797" y1="51.2057" x2="17.3797" y2="34.7803" gradientUnits="userSpaceOnUse">
<stop stop-color="#0DF9D2"/>
<stop offset="1" stop-color="#0BDBB9"/>
</linearGradient>
<linearGradient id="paint60_linear" x1="9.14434" y1="67.6471" x2="9.14434" y2="43.0324" gradientUnits="userSpaceOnUse">
<stop stop-color="#6A24FC"/>
<stop offset="1" stop-color="#4918AE"/>
</linearGradient>
<linearGradient id="paint61_linear" x1="9.15324" y1="67.6218" x2="9.15324" y2="43.0071" gradientUnits="userSpaceOnUse">
<stop stop-color="#10E9C5"/>
<stop offset="1" stop-color="#0AC6A7"/>
</linearGradient>
<linearGradient id="paint62_linear" x1="33.823" y1="55.3271" x2="17.3748" y2="55.3271" gradientUnits="userSpaceOnUse">
<stop stop-color="#864EFC"/>
<stop offset="1" stop-color="#6A24FC"/>
</linearGradient>
<linearGradient id="paint63_linear" x1="25.5993" y1="67.6218" x2="25.5993" y2="43.0071" gradientUnits="userSpaceOnUse">
<stop stop-color="#0DDAB8"/>
<stop offset="1" stop-color="#08AF94"/>
</linearGradient>
<linearGradient id="paint64_linear" x1="84.2102" y1="39.6235" x2="84.2102" y2="23.1981" gradientUnits="userSpaceOnUse">
<stop stop-color="#38E6FD"/>
<stop offset="1" stop-color="#31C3D7"/>
</linearGradient>
<linearGradient id="paint65_linear" x1="84.2231" y1="43.7281" x2="67.7748" y2="43.7281" gradientUnits="userSpaceOnUse">
<stop stop-color="#F3E5A5"/>
<stop offset="1" stop-color="#F4C15B"/>
</linearGradient>
<linearGradient id="paint66_linear" x1="75.9966" y1="56.0397" x2="75.9966" y2="31.3784" gradientUnits="userSpaceOnUse">
<stop stop-color="#38E6FD"/>
<stop offset="1" stop-color="#31C3D7"/>
</linearGradient>
<linearGradient id="paint67_linear" x1="92.4426" y1="56.0397" x2="92.4426" y2="31.3784" gradientUnits="userSpaceOnUse">
<stop stop-color="#31CEE2"/>
<stop offset="1" stop-color="#2AA9BA"/>
</linearGradient>
<linearGradient id="paint68_linear" x1="62.4142" y1="51.2226" x2="62.4142" y2="34.7972" gradientUnits="userSpaceOnUse">
<stop stop-color="#6A24FC"/>
<stop offset="1" stop-color="#4918AE"/>
</linearGradient>
<linearGradient id="paint69_linear" x1="62.432" y1="51.2057" x2="62.432" y2="34.7803" gradientUnits="userSpaceOnUse">
<stop stop-color="#0DF9D2"/>
<stop offset="1" stop-color="#0BDBB9"/>
</linearGradient>
<linearGradient id="paint70_linear" x1="54.1966" y1="67.6471" x2="54.1966" y2="43.0324" gradientUnits="userSpaceOnUse">
<stop stop-color="#6A24FC"/>
<stop offset="1" stop-color="#4918AE"/>
</linearGradient>
<linearGradient id="paint71_linear" x1="54.2055" y1="67.6218" x2="54.2055" y2="43.0071" gradientUnits="userSpaceOnUse">
<stop stop-color="#0FF0CB"/>
<stop offset="1" stop-color="#0AD0B0"/>
</linearGradient>
<linearGradient id="paint72_linear" x1="78.8624" y1="55.3271" x2="62.4141" y2="55.3271" gradientUnits="userSpaceOnUse">
<stop stop-color="#864EFC"/>
<stop offset="1" stop-color="#6A24FC"/>
</linearGradient>
<linearGradient id="paint73_linear" x1="70.6515" y1="67.6218" x2="70.6515" y2="43.0071" gradientUnits="userSpaceOnUse">
<stop stop-color="#0DDAB8"/>
<stop offset="1" stop-color="#08AF94"/>
</linearGradient>
<linearGradient id="paint74_linear" x1="40.6277" y1="62.833" x2="40.6277" y2="46.3846" gradientUnits="userSpaceOnUse">
<stop stop-color="#F73669"/>
<stop offset="1" stop-color="#DA2C5A"/>
</linearGradient>
<linearGradient id="paint75_linear" x1="32.4014" y1="79.2485" x2="32.4014" y2="54.6224" gradientUnits="userSpaceOnUse">
<stop stop-color="#F73669"/>
<stop offset="1" stop-color="#DA2C5A"/>
</linearGradient>
<linearGradient id="paint76_linear" x1="57.0745" y1="66.9262" x2="40.6262" y2="66.9262" gradientUnits="userSpaceOnUse">
<stop stop-color="#864EFC"/>
<stop offset="1" stop-color="#6A24FC"/>
</linearGradient>
<linearGradient id="paint77_linear" x1="48.8474" y1="79.2485" x2="48.8474" y2="54.6224" gradientUnits="userSpaceOnUse">
<stop stop-color="#E73262"/>
<stop offset="1" stop-color="#BD264E"/>
</linearGradient>
<linearGradient id="paint78_linear" x1="129.262" y1="39.6235" x2="129.262" y2="23.1981" gradientUnits="userSpaceOnUse">
<stop stop-color="#38E6FD"/>
<stop offset="1" stop-color="#31C3D7"/>
</linearGradient>
<linearGradient id="paint79_linear" x1="129.262" y1="43.7281" x2="112.814" y2="43.7281" gradientUnits="userSpaceOnUse">
<stop stop-color="#F3E5A5"/>
<stop offset="1" stop-color="#F4C15B"/>
</linearGradient>
<linearGradient id="paint80_linear" x1="121.049" y1="56.0397" x2="121.049" y2="31.3784" gradientUnits="userSpaceOnUse">
<stop stop-color="#38E6FD"/>
<stop offset="1" stop-color="#31C3D7"/>
</linearGradient>
<linearGradient id="paint81_linear" x1="145.319" y1="43.7281" x2="129.134" y2="43.7281" gradientUnits="userSpaceOnUse">
<stop stop-color="#F49D5B"/>
<stop offset="1" stop-color="#F4C15B"/>
</linearGradient>
<linearGradient id="paint82_linear" x1="137.495" y1="56.0397" x2="137.495" y2="31.3784" gradientUnits="userSpaceOnUse">
<stop stop-color="#31CEE2"/>
<stop offset="1" stop-color="#2AA9BA"/>
</linearGradient>
<linearGradient id="paint83_linear" x1="152.464" y1="51.2057" x2="152.464" y2="34.7803" gradientUnits="userSpaceOnUse">
<stop stop-color="#38E6FD"/>
<stop offset="1" stop-color="#31C3D7"/>
</linearGradient>
<linearGradient id="paint84_linear" x1="152.493" y1="55.3271" x2="136.044" y2="55.3271" gradientUnits="userSpaceOnUse">
<stop stop-color="#864EFC"/>
<stop offset="1" stop-color="#6A24FC"/>
</linearGradient>
<linearGradient id="paint85_linear" x1="144.25" y1="67.6219" x2="144.25" y2="43.0071" gradientUnits="userSpaceOnUse">
<stop stop-color="#38E6FD"/>
<stop offset="1" stop-color="#31C3D7"/>
</linearGradient>
<linearGradient id="paint86_linear" x1="168.941" y1="55.3271" x2="152.493" y2="55.3271" gradientUnits="userSpaceOnUse">
<stop stop-color="#864EFC"/>
<stop offset="1" stop-color="#6A24FC"/>
</linearGradient>
<linearGradient id="paint87_linear" x1="160.696" y1="67.6219" x2="160.696" y2="43.0071" gradientUnits="userSpaceOnUse">
<stop stop-color="#31CEE2"/>
<stop offset="1" stop-color="#2AA9BA"/>
</linearGradient>
<linearGradient id="paint88_linear" x1="119.066" y1="62.8271" x2="119.066" y2="34.8091" gradientUnits="userSpaceOnUse">
<stop stop-color="#F73669"/>
<stop offset="1" stop-color="#DA2C5A"/>
</linearGradient>
<linearGradient id="paint89_linear" x1="110.839" y1="79.2426" x2="110.839" y2="43.0469" gradientUnits="userSpaceOnUse">
<stop stop-color="#F73669"/>
<stop offset="1" stop-color="#DA2C5A"/>
</linearGradient>
<linearGradient id="paint90_linear" x1="147.132" y1="66.9261" x2="130.684" y2="66.9261" gradientUnits="userSpaceOnUse">
<stop stop-color="#864EFC"/>
<stop offset="1" stop-color="#6A24FC"/>
</linearGradient>
<linearGradient id="paint91_linear" x1="138.905" y1="79.2485" x2="138.905" y2="54.6224" gradientUnits="userSpaceOnUse">
<stop stop-color="#E73262"/>
<stop offset="1" stop-color="#BD264E"/>
</linearGradient>
<linearGradient id="paint92_linear" x1="85.6079" y1="62.8343" x2="85.6079" y2="46.3624" gradientUnits="userSpaceOnUse">
<stop stop-color="#38E6FD"/>
<stop offset="1" stop-color="#31C3D7"/>
</linearGradient>
<linearGradient id="paint93_linear" x1="85.6448" y1="66.9262" x2="69.1965" y2="66.9262" gradientUnits="userSpaceOnUse">
<stop stop-color="#F3E5A5"/>
<stop offset="1" stop-color="#F4C15B"/>
</linearGradient>
<linearGradient id="paint94_linear" x1="77.3943" y1="79.2505" x2="77.3943" y2="54.5892" gradientUnits="userSpaceOnUse">
<stop stop-color="#38E6FD"/>
<stop offset="1" stop-color="#31C3D7"/>
</linearGradient>
<linearGradient id="paint95_linear" x1="101.701" y1="66.9262" x2="85.5163" y2="66.9262" gradientUnits="userSpaceOnUse">
<stop stop-color="#F49D5B"/>
<stop offset="1" stop-color="#F4C15B"/>
</linearGradient>
<linearGradient id="paint96_linear" x1="93.8403" y1="79.2505" x2="93.8403" y2="54.5892" gradientUnits="userSpaceOnUse">
<stop stop-color="#31CEE2"/>
<stop offset="1" stop-color="#2AA9BA"/>
</linearGradient>
<linearGradient id="paint97_linear" x1="63.804" y1="74.4165" x2="63.804" y2="57.9911" gradientUnits="userSpaceOnUse">
<stop stop-color="#38E6FD"/>
<stop offset="1" stop-color="#31C3D7"/>
</linearGradient>
<linearGradient id="paint98_linear" x1="63.8359" y1="78.5252" x2="47.3876" y2="78.5252" gradientUnits="userSpaceOnUse">
<stop stop-color="#F3E5A5"/>
<stop offset="1" stop-color="#F4C15B"/>
</linearGradient>
<linearGradient id="paint99_linear" x1="55.5903" y1="90.8327" x2="55.5903" y2="66.1714" gradientUnits="userSpaceOnUse">
<stop stop-color="#38E6FD"/>
<stop offset="1" stop-color="#31C3D7"/>
</linearGradient>
<linearGradient id="paint100_linear" x1="79.8923" y1="78.5252" x2="63.7074" y2="78.5252" gradientUnits="userSpaceOnUse">
<stop stop-color="#F49D5B"/>
<stop offset="1" stop-color="#F4C15B"/>
</linearGradient>
<linearGradient id="paint101_linear" x1="72.0364" y1="90.8327" x2="72.0364" y2="66.1714" gradientUnits="userSpaceOnUse">
<stop stop-color="#31CEE2"/>
<stop offset="1" stop-color="#2AA9BA"/>
</linearGradient>
<linearGradient id="paint102_linear" x1="97.9838" y1="85.9915" x2="97.9838" y2="58.0199" gradientUnits="userSpaceOnUse">
<stop stop-color="#F73669"/>
<stop offset="1" stop-color="#DA2C5A"/>
</linearGradient>
<linearGradient id="paint103_linear" x1="78.8511" y1="102.413" x2="78.8511" y2="77.8332" gradientUnits="userSpaceOnUse">
<stop stop-color="#F73669"/>
<stop offset="1" stop-color="#DA2C5A"/>
</linearGradient>
<linearGradient id="paint104_linear" x1="125.338" y1="84.2954" x2="87.0827" y2="84.2954" gradientUnits="userSpaceOnUse">
<stop stop-color="#864EFC"/>
<stop offset="1" stop-color="#6A24FC"/>
</linearGradient>
<linearGradient id="paint105_linear" x1="106.203" y1="102.407" x2="106.203" y2="66.2112" gradientUnits="userSpaceOnUse">
<stop stop-color="#E73262"/>
<stop offset="1" stop-color="#BD264E"/>
</linearGradient>
<linearGradient id="paint106_linear" x1="43.9886" y1="108.259" x2="43.9886" y2="227.873" gradientUnits="userSpaceOnUse">
<stop stop-color="#4775EB"/>
<stop offset="1" stop-color="#271A54"/>
</linearGradient>
<linearGradient id="paint107_linear" x1="130.026" y1="108.259" x2="130.026" y2="227.873" gradientUnits="userSpaceOnUse">
<stop stop-color="#3559B5"/>
<stop offset="1" stop-color="#170F33"/>
</linearGradient>
</defs>
</svg>
