<svg width="57" height="57" viewBox="0 0 57 57" fill="none" xmlns="http://www.w3.org/2000/svg">
<path d="M31.718 22.796H26.0483V44.0046H31.718V22.796Z" fill="url(#paint0_linear)"/>
<path d="M23.8766 43.1647H18.166L18.166 28.9037L23.8766 26.3069V43.1647Z" fill="url(#paint1_linear)"/>
<path d="M33.8162 43.1647H39.5268V28.9037L33.8162 26.3069V43.1647Z" fill="url(#paint2_linear)"/>
<path d="M42.17 47.4269C41.513 46.7693 40.856 46.1032 40.1822 45.4203C37.6133 47.3426 34.7411 48.5567 31.5573 49.0205C31.5573 49.9732 31.5573 50.9175 31.5573 51.8703C29.7802 51.8703 28.0114 51.8703 26.2173 51.8703C26.2173 50.926 26.2173 49.9816 26.2173 49.0205C23.0336 48.5483 20.1614 47.351 17.5925 45.4203C16.9187 46.1032 16.2533 46.7693 15.6131 47.4185C14.3329 46.1454 13.0779 44.8975 11.8061 43.6412C12.4715 42.9751 13.1537 42.3006 13.8444 41.6008C12.0167 39.0883 10.8796 36.2975 10.4248 33.22C9.47299 33.22 8.52965 33.22 7.56104 33.22C7.56104 31.4325 7.56104 29.6619 7.56104 27.8745C8.5128 27.8745 9.45615 27.8745 10.4248 27.8745C10.888 24.797 12.0082 22.0062 13.8444 19.4852C13.1621 18.8023 12.4883 18.1278 11.8145 17.4532C13.0779 16.197 14.3329 14.9491 15.5795 13.7097C16.2196 14.3505 16.8934 15.0081 17.5756 15.6827C20.153 13.7434 23.0083 12.5377 26.2089 12.0656C26.2089 11.1128 26.2089 10.1601 26.2089 9.19046C28.003 9.19046 29.7633 9.19046 31.5489 9.19046C31.5489 10.1432 31.5489 11.096 31.5489 12.0656C34.7327 12.5377 37.6049 13.7266 40.1654 15.6658C40.8308 14.9913 41.4962 14.3252 42.1447 13.676C43.425 14.9491 44.6799 16.1885 45.9265 17.428C45.2527 18.094 44.5704 18.777 43.8882 19.4515C45.7328 21.9978 46.8698 24.7886 47.3331 27.8745C48.2849 27.8745 49.2282 27.8745 50.18 27.8745C50.18 29.6619 50.18 31.4241 50.18 33.2116C49.2366 33.2116 48.2933 33.2116 47.3331 33.2116C46.8698 36.289 45.7496 39.0798 43.9303 41.5755C44.621 42.2585 45.3032 42.9414 45.9855 43.6244C44.7052 44.9059 43.4586 46.1538 42.17 47.4269ZM28.8958 43.9279C36.2404 43.9195 42.2542 37.8994 42.2542 30.5472C42.2458 23.077 36.1225 17.1666 28.8789 17.175C21.6101 17.1834 15.5289 23.1613 15.5373 30.5641C15.5373 37.8235 21.4164 43.8942 28.8958 43.9279Z" fill="url(#paint3_linear)"/>
<defs>
<linearGradient id="paint0_linear" x1="28.8832" y1="22.796" x2="28.8832" y2="44.0046" gradientUnits="userSpaceOnUse">
<stop stop-color="#6C42D4" stop-opacity="0"/>
<stop offset="1" stop-color="#37E9FF"/>
</linearGradient>
<linearGradient id="paint1_linear" x1="21.0213" y1="26.3069" x2="21.0213" y2="42.3013" gradientUnits="userSpaceOnUse">
<stop stop-color="#6C42D4" stop-opacity="0"/>
<stop offset="1" stop-color="#0CF9D1"/>
</linearGradient>
<linearGradient id="paint2_linear" x1="36.6715" y1="26.3069" x2="36.6715" y2="42.3013" gradientUnits="userSpaceOnUse">
<stop stop-color="#6C42D4" stop-opacity="0"/>
<stop offset="0.973958" stop-color="#F73669"/>
</linearGradient>
<linearGradient id="paint3_linear" x1="28.8705" y1="9.19046" x2="28.8705" y2="57.4696" gradientUnits="userSpaceOnUse">
<stop stop-color="#4775EB"/>
<stop offset="1" stop-color="#271A54"/>
</linearGradient>
</defs>
</svg>
