<svg width="26" height="27" viewBox="0 0 26 27" fill="none" xmlns="http://www.w3.org/2000/svg">
<g clip-path="url(#clip0)">
<g opacity="0.61">
<path d="M25.6897 26.122C17.1265 26.122 8.56324 26.122 0 26.122C0 17.5587 0 8.99549 0 0.432251C8.56324 0.432251 17.1265 0.432251 25.6897 0.432251C25.6897 8.99549 25.6897 17.5587 25.6897 26.122ZM20.0828 18.913C19.9925 18.7503 19.9497 18.6199 19.8647 18.5303C19.5769 18.2293 19.2785 17.9368 18.9742 17.6523C18.8279 17.5153 18.7594 17.369 18.7601 17.1635C18.7654 14.4858 18.7654 11.8075 18.7601 9.12987C18.7594 8.92633 18.8194 8.7768 18.9696 8.63979C19.2864 8.35193 19.5966 8.05683 19.895 7.74987C19.9787 7.66358 20.0116 7.52854 20.0907 7.37045C18.6817 7.37045 17.357 7.37045 16.0172 7.37045C15.0693 9.73325 14.1241 12.0895 13.1597 14.4944C13.0827 14.3396 13.0313 14.2434 12.9865 14.144C12.0037 11.9887 11.0163 9.83535 10.046 7.67478C9.9327 7.42249 9.79832 7.34674 9.5322 7.35003C8.36892 7.36386 7.20564 7.35596 6.04235 7.35596C5.9251 7.35596 5.80785 7.35596 5.60168 7.35596C5.69324 7.54172 5.7321 7.67478 5.81246 7.7749C6.16224 8.21163 6.50872 8.65296 6.88682 9.06466C7.13713 9.3367 7.21618 9.62851 7.2142 9.98883C7.20234 12.0078 7.20103 14.0274 7.21618 16.047C7.21881 16.4014 7.12659 16.6794 6.89736 16.9442C6.45866 17.4494 6.04235 17.9744 5.61617 18.4908C5.52592 18.6002 5.42251 18.7062 5.52 18.8682C6.95006 18.8682 8.37946 18.8682 9.88791 18.8682C9.79635 18.695 9.75089 18.5646 9.66921 18.4631C9.22854 17.9164 8.78061 17.3756 8.33006 16.8368C8.16801 16.6431 8.08765 16.4337 8.08897 16.1761C8.09556 14.4529 8.09226 12.7304 8.09358 11.0072C8.09358 10.9301 8.10873 10.8524 8.12388 10.7121C8.18382 10.8254 8.21083 10.8715 8.23257 10.9196C8.83134 12.2258 9.42879 13.532 10.0276 14.8383C10.6079 16.1043 11.1895 17.3703 11.7705 18.6364C11.8285 18.7629 11.8614 18.892 12.0544 18.9038C12.2896 18.919 12.3752 18.8123 12.4529 18.6133C13.4384 16.0905 14.431 13.5702 15.4231 11.05C15.4606 10.9545 15.5074 10.8623 15.5634 10.7398C15.5884 10.803 15.6022 10.8208 15.6022 10.8386C15.6035 12.957 15.6068 15.0747 15.5963 17.1931C15.5956 17.3269 15.512 17.4882 15.4171 17.589C15.1088 17.9164 14.7782 18.2227 14.4547 18.5356C14.3494 18.6377 14.2492 18.7391 14.35 18.9144C16.2273 18.913 18.1106 18.913 20.0828 18.913Z" fill="url(#paint0_linear)"/>
<path d="M25.6897 26.122C17.1265 26.122 8.56324 26.122 0 26.122C0 17.5587 0 8.99549 0 0.432251C8.56324 0.432251 17.1265 0.432251 25.6897 0.432251C25.6897 8.99549 25.6897 17.5587 25.6897 26.122ZM20.0828 18.913C19.9925 18.7503 19.9497 18.6199 19.8647 18.5303C19.5769 18.2293 19.2785 17.9368 18.9742 17.6523C18.8279 17.5153 18.7594 17.369 18.7601 17.1635C18.7654 14.4858 18.7654 11.8075 18.7601 9.12987C18.7594 8.92633 18.8194 8.7768 18.9696 8.63979C19.2864 8.35193 19.5966 8.05683 19.895 7.74987C19.9787 7.66358 20.0116 7.52854 20.0907 7.37045C18.6817 7.37045 17.357 7.37045 16.0172 7.37045C15.0693 9.73325 14.1241 12.0895 13.1597 14.4944C13.0827 14.3396 13.0313 14.2434 12.9865 14.144C12.0037 11.9887 11.0163 9.83535 10.046 7.67478C9.9327 7.42249 9.79832 7.34674 9.5322 7.35003C8.36892 7.36386 7.20564 7.35596 6.04235 7.35596C5.9251 7.35596 5.80785 7.35596 5.60168 7.35596C5.69324 7.54172 5.7321 7.67478 5.81246 7.7749C6.16224 8.21163 6.50872 8.65296 6.88682 9.06466C7.13713 9.3367 7.21618 9.62851 7.2142 9.98883C7.20234 12.0078 7.20103 14.0274 7.21618 16.047C7.21881 16.4014 7.12659 16.6794 6.89736 16.9442C6.45866 17.4494 6.04235 17.9744 5.61617 18.4908C5.52592 18.6002 5.42251 18.7062 5.52 18.8682C6.95006 18.8682 8.37946 18.8682 9.88791 18.8682C9.79635 18.695 9.75089 18.5646 9.66921 18.4631C9.22854 17.9164 8.78061 17.3756 8.33006 16.8368C8.16801 16.6431 8.08765 16.4337 8.08897 16.1761C8.09556 14.4529 8.09226 12.7304 8.09358 11.0072C8.09358 10.9301 8.10873 10.8524 8.12388 10.7121C8.18382 10.8254 8.21083 10.8715 8.23257 10.9196C8.83134 12.2258 9.42879 13.532 10.0276 14.8383C10.6079 16.1043 11.1895 17.3703 11.7705 18.6364C11.8285 18.7629 11.8614 18.892 12.0544 18.9038C12.2896 18.919 12.3752 18.8123 12.4529 18.6133C13.4384 16.0905 14.431 13.5702 15.4231 11.05C15.4606 10.9545 15.5074 10.8623 15.5634 10.7398C15.5884 10.803 15.6022 10.8208 15.6022 10.8386C15.6035 12.957 15.6068 15.0747 15.5963 17.1931C15.5956 17.3269 15.512 17.4882 15.4171 17.589C15.1088 17.9164 14.7782 18.2227 14.4547 18.5356C14.3494 18.6377 14.2492 18.7391 14.35 18.9144C16.2273 18.913 18.1106 18.913 20.0828 18.913Z" fill="url(#paint1_linear)"/>
</g>
</g>
<defs>
<linearGradient id="paint0_linear" x1="12.8449" y1="0.432251" x2="12.8449" y2="29.4923" gradientUnits="userSpaceOnUse">
<stop stop-color="#608CFF"/>
<stop offset="1" stop-color="#23336D"/>
</linearGradient>
<linearGradient id="paint1_linear" x1="12.8449" y1="0.432251" x2="24.4914" y2="28.4053" gradientUnits="userSpaceOnUse">
<stop stop-color="#608CFF"/>
<stop offset="1" stop-color="#23336D"/>
</linearGradient>
<clipPath id="clip0">
<rect width="25.6897" height="25.6897" fill="white" transform="translate(0 0.432251)"/>
</clipPath>
</defs>
</svg>
