<svg width="16" height="16" viewBox="0 0 16 16" fill="none" xmlns="http://www.w3.org/2000/svg">
<path d="M12.9929 14.3343C12.7462 14.0877 12.4996 13.838 12.2466 13.582C11.2822 14.3026 10.204 14.7578 9.0087 14.9316C9.0087 15.2888 9.0087 15.6428 9.0087 16C8.3415 16 7.67747 16 7.00395 16C7.00395 15.646 7.00395 15.292 7.00395 14.9316C5.8087 14.7546 4.73043 14.3058 3.76601 13.582C3.51304 13.838 3.26324 14.0877 3.02292 14.3311C2.54229 13.8538 2.07115 13.386 1.59368 12.9151C1.84348 12.6653 2.0996 12.4125 2.35889 12.1501C1.67273 11.2082 1.24585 10.162 1.0751 9.0083C0.717787 9.0083 0.363636 9.0083 0 9.0083C0 8.33821 0 7.67444 0 7.00435C0.357312 7.00435 0.711462 7.00435 1.0751 7.00435C1.24901 5.85065 1.66957 4.80442 2.35889 3.85934C2.10277 3.60332 1.8498 3.35045 1.59684 3.09759C2.07115 2.62663 2.54229 2.15883 3.01028 1.69419C3.25059 1.93441 3.50356 2.18096 3.75968 2.43382C4.72727 1.70684 5.79921 1.25484 7.00079 1.07783C7.00079 0.720664 7.00079 0.363493 7.00079 0C7.67431 0 8.33518 0 9.00553 0C9.00553 0.357171 9.00553 0.714342 9.00553 1.07783C10.2008 1.25484 11.2791 1.70051 12.2403 2.4275C12.4901 2.17463 12.7399 1.92493 12.9834 1.68155C13.464 2.15883 13.9352 2.62347 14.4032 3.08811C14.1502 3.33781 13.8941 3.59384 13.6379 3.8467C14.3304 4.80126 14.7573 5.84749 14.9312 7.00435C15.2885 7.00435 15.6427 7.00435 16 7.00435C16 7.67444 16 8.33504 16 9.00514C15.6458 9.00514 15.2917 9.00514 14.9312 9.00514C14.7573 10.1588 14.3368 11.2051 13.6538 12.1407C13.913 12.3967 14.1692 12.6527 14.4253 12.9087C13.9447 13.3892 13.4767 13.857 12.9929 14.3343ZM8.00949 13.0225C10.7668 13.0194 13.0245 10.7625 13.0245 8.00632C13.0213 5.20585 10.7225 2.99012 8.00316 2.99328C5.27431 2.99644 2.9913 5.23746 2.99447 8.01264C2.99447 10.7341 5.20158 13.0099 8.00949 13.0225Z" fill="url(#paint0_linear)"/>
<defs>
<linearGradient id="paint0_linear" x1="8" y1="0" x2="8" y2="18.0991" gradientUnits="userSpaceOnUse">
<stop stop-color="white"/>
</linearGradient>
</defs>
</svg>
