<svg width="25" height="25" viewBox="0 0 25 25" fill="none" xmlns="http://www.w3.org/2000/svg">
<g opacity="0.61">
<path fill-rule="evenodd" clip-rule="evenodd" d="M0 12.5C0 19.4035 5.59646 25 12.5 25C19.4035 25 25 19.4035 25 12.5C25 5.59646 19.4035 0 12.5 0C5.59646 0 0 5.59646 0 12.5ZM10.2083 18.2292L10.421 15.0429L10.4208 15.0427L16.2171 9.81198C16.4715 9.5862 16.1616 9.47609 15.8239 9.68088L8.67047 14.1939L5.58057 13.2295C4.91328 13.0252 4.90849 12.5667 5.73036 12.237L17.771 7.59422C18.3209 7.34453 18.8517 7.7263 18.6418 8.56797L16.5912 18.2308C16.4481 18.9174 16.0332 19.0817 15.4583 18.7645L12.3347 16.4567L10.8333 17.9167C10.8286 17.9212 10.8239 17.9258 10.8192 17.9304C10.6513 18.0939 10.5123 18.2292 10.2083 18.2292Z" fill="url(#paint0_linear)"/>
<path fill-rule="evenodd" clip-rule="evenodd" d="M0 12.5C0 19.4035 5.59646 25 12.5 25C19.4035 25 25 19.4035 25 12.5C25 5.59646 19.4035 0 12.5 0C5.59646 0 0 5.59646 0 12.5ZM10.2083 18.2292L10.421 15.0429L10.4208 15.0427L16.2171 9.81198C16.4715 9.5862 16.1616 9.47609 15.8239 9.68088L8.67047 14.1939L5.58057 13.2295C4.91328 13.0252 4.90849 12.5667 5.73036 12.237L17.771 7.59422C18.3209 7.34453 18.8517 7.7263 18.6418 8.56797L16.5912 18.2308C16.4481 18.9174 16.0332 19.0817 15.4583 18.7645L12.3347 16.4567L10.8333 17.9167C10.8286 17.9212 10.8239 17.9258 10.8192 17.9304C10.6513 18.0939 10.5123 18.2292 10.2083 18.2292Z" fill="url(#paint1_linear)"/>
</g>
<defs>
<linearGradient id="paint0_linear" x1="12.5" y1="0" x2="12.5" y2="28.2798" gradientUnits="userSpaceOnUse">
<stop stop-color="#608CFF"/>
<stop offset="1" stop-color="#23336D"/>
</linearGradient>
<linearGradient id="paint1_linear" x1="12.5" y1="0" x2="23.8339" y2="27.222" gradientUnits="userSpaceOnUse">
<stop stop-color="#608CFF"/>
<stop offset="1" stop-color="#23336D"/>
</linearGradient>
</defs>
</svg>
