<svg width="28" height="28" viewBox="0 0 28 28" fill="none" xmlns="http://www.w3.org/2000/svg">
<g clip-path="url(#clip0)">
<path opacity="0.61" d="M27.3653 5.18342C26.9254 5.37852 26.4731 5.54317 26.0111 5.67685C26.5581 5.05814 26.9752 4.33014 27.2299 3.5335C27.2869 3.35493 27.2278 3.15947 27.081 3.04268C26.9344 2.92581 26.7307 2.91181 26.5693 3.00746C25.588 3.5895 24.5292 4.00778 23.4191 4.25237C22.3008 3.15965 20.7819 2.53778 19.2117 2.53778C15.8974 2.53778 13.2009 5.23418 13.2009 8.54847C13.2009 8.80951 13.2174 9.06909 13.2501 9.32507C9.13726 8.96396 5.31363 6.94245 2.68796 3.72164C2.59438 3.60684 2.45023 3.54497 2.30264 3.5568C2.15496 3.56836 2.02228 3.65164 1.94767 3.77963C1.41513 4.69342 1.13359 5.73854 1.13359 6.80191C1.13359 8.25023 1.65069 9.6244 2.56412 10.6982C2.28638 10.602 2.01686 10.4817 1.75962 10.3389C1.62152 10.2621 1.45298 10.2632 1.31578 10.3419C1.17848 10.4206 1.09241 10.5653 1.08879 10.7234C1.08816 10.7501 1.08816 10.7767 1.08816 10.8037C1.08816 12.9656 2.2517 14.912 4.0306 15.9728C3.87777 15.9575 3.72504 15.9354 3.5733 15.9064C3.41686 15.8765 3.25599 15.9313 3.1505 16.0507C3.04482 16.1699 3.00987 16.3361 3.05855 16.4878C3.717 18.5436 5.41226 20.0557 7.46168 20.5167C5.7619 21.5813 3.81807 22.1389 1.7775 22.1389C1.35172 22.1389 0.923504 22.1139 0.504407 22.0643C0.296214 22.0396 0.0971428 22.1625 0.0262395 22.3605C-0.0446637 22.5586 0.0304847 22.7794 0.207607 22.893C2.82904 24.5738 5.86017 25.4622 8.97314 25.4622C15.0929 25.4622 18.9212 22.5764 21.0551 20.1555C23.716 17.1368 25.242 13.1412 25.242 9.19329C25.242 9.02836 25.2395 8.8618 25.2345 8.69579C26.2843 7.90484 27.1881 6.9476 27.9236 5.84738C28.0354 5.68028 28.0233 5.45944 27.8938 5.30562C27.7646 5.15172 27.5492 5.10195 27.3653 5.18342Z" fill="url(#paint0_linear)"/>
</g>
<defs>
<linearGradient id="paint0_linear" x1="13.9998" y1="2.53778" x2="22.9444" y2="28.7778" gradientUnits="userSpaceOnUse">
<stop stop-color="#608CFF"/>
<stop offset="1" stop-color="#23336D"/>
</linearGradient>
<clipPath id="clip0">
<rect width="28" height="28" fill="white"/>
</clipPath>
</defs>
</svg>
