<svg width="608" height="304" viewBox="0 0 608 304" fill="none" xmlns="http://www.w3.org/2000/svg">
<path d="M184.906 36.698L144.273 133H115.454L75.0003 36.698H103.819L130.49 102.212L158.056 36.698H184.906ZM283.358 36.698V133H256.687V121.902C249.765 130.255 239.741 134.432 226.615 134.432C217.545 134.432 209.311 132.403 201.913 128.346C194.633 124.289 188.905 118.501 184.729 110.983C180.552 103.465 178.464 94.7537 178.464 84.849C178.464 74.9443 180.552 66.233 184.729 58.715C188.905 51.197 194.633 45.4093 201.913 41.352C209.311 37.2947 217.545 35.266 226.615 35.266C238.906 35.266 248.512 39.1443 255.434 46.901V36.698H283.358ZM231.448 111.52C238.488 111.52 244.336 109.133 248.99 104.36C253.644 99.4673 255.971 92.9637 255.971 84.849C255.971 76.7343 253.644 70.2903 248.99 65.517C244.336 60.6243 238.488 58.178 231.448 58.178C224.288 58.178 218.381 60.6243 213.727 65.517C209.073 70.2903 206.746 76.7343 206.746 84.849C206.746 92.9637 209.073 99.4673 213.727 104.36C218.381 109.133 224.288 111.52 231.448 111.52ZM398.174 36.698V133H371.682V121.544C367.982 125.721 363.567 128.943 358.436 131.21C353.304 133.358 347.755 134.432 341.789 134.432C329.139 134.432 319.115 130.792 311.717 123.513C304.318 116.234 300.619 105.434 300.619 91.114V36.698H328.543V86.997C328.543 102.51 335.046 110.267 348.054 110.267C354.736 110.267 360.106 108.119 364.164 103.823C368.221 99.4077 370.25 92.904 370.25 84.312V36.698H398.174ZM450.535 134.432C439.676 134.432 431.203 131.568 425.117 125.84C419.031 119.993 415.988 111.759 415.988 101.138V0.181992H443.912V99.527C443.912 103.584 444.927 106.747 446.955 109.014C449.103 111.162 452.087 112.236 455.905 112.236C457.337 112.236 458.769 112.057 460.201 111.699C461.753 111.341 462.946 110.923 463.781 110.446L465.034 132.105C460.38 133.656 455.547 134.432 450.535 134.432ZM528.684 128.346C525.94 130.375 522.539 131.926 518.481 133C514.543 133.955 510.426 134.432 506.13 134.432C494.555 134.432 485.665 131.508 479.459 125.661C473.254 119.814 470.151 111.222 470.151 99.885V15.397H498.075V38.846H521.882V60.326H498.075V99.527C498.075 103.584 499.09 106.747 501.118 109.014C503.147 111.162 506.071 112.236 509.889 112.236C514.185 112.236 518.004 111.043 521.345 108.656L528.684 128.346ZM27.5667 172.846H52.2687V194.326H28.2827V267H0.358673V168.55C0.358673 157.571 3.58067 148.86 10.0247 142.416C16.588 135.972 25.7767 132.75 37.5907 132.75C41.7673 132.75 45.7053 133.227 49.4047 134.182C53.2233 135.017 56.3857 136.27 58.8917 137.941L51.5527 158.168C48.3307 155.901 44.5717 154.767 40.2757 154.767C31.803 154.767 27.5667 159.421 27.5667 168.729V172.846ZM154.715 170.698V267H128.044V255.902C121.123 264.255 111.099 268.432 97.9724 268.432C88.9031 268.432 80.6691 266.403 73.2704 262.346C65.9911 258.289 60.2631 252.501 56.0864 244.983C51.9097 237.465 49.8214 228.754 49.8214 218.849C49.8214 208.944 51.9097 200.233 56.0864 192.715C60.2631 185.197 65.9911 179.409 73.2704 175.352C80.6691 171.295 88.9031 169.266 97.9724 169.266C110.264 169.266 119.87 173.144 126.791 180.901V170.698H154.715ZM102.805 245.52C109.846 245.52 115.693 243.133 120.347 238.36C125.001 233.467 127.328 226.964 127.328 218.849C127.328 210.734 125.001 204.29 120.347 199.517C115.693 194.624 109.846 192.178 102.805 192.178C95.6454 192.178 89.7384 194.624 85.0844 199.517C80.4304 204.29 78.1034 210.734 78.1034 218.849C78.1034 226.964 80.4304 233.467 85.0844 238.36C89.7384 243.133 95.6454 245.52 102.805 245.52ZM219.053 268.432C208.791 268.432 199.542 266.344 191.308 262.167C183.194 257.871 176.809 251.964 172.155 244.446C167.621 236.928 165.353 228.396 165.353 218.849C165.353 209.302 167.621 200.77 172.155 193.252C176.809 185.734 183.194 179.887 191.308 175.71C199.542 171.414 208.791 169.266 219.053 169.266C229.197 169.266 238.027 171.414 245.545 175.71C253.183 179.887 258.732 185.913 262.192 193.789L240.533 205.424C235.521 196.593 228.302 192.178 218.874 192.178C211.595 192.178 205.569 194.565 200.795 199.338C196.022 204.111 193.635 210.615 193.635 218.849C193.635 227.083 196.022 233.587 200.795 238.36C205.569 243.133 211.595 245.52 218.874 245.52C228.421 245.52 235.641 241.105 240.533 232.274L262.192 244.088C258.732 251.725 253.183 257.692 245.545 261.988C238.027 266.284 229.197 268.432 219.053 268.432ZM327.512 262.346C324.767 264.375 321.366 265.926 317.309 267C313.371 267.955 309.254 268.432 304.958 268.432C293.383 268.432 284.492 265.508 278.287 259.661C272.082 253.814 268.979 245.222 268.979 233.885V149.397H296.903V172.846H320.71V194.326H296.903V233.527C296.903 237.584 297.917 240.747 299.946 243.014C301.975 245.162 304.898 246.236 308.717 246.236C313.013 246.236 316.832 245.043 320.173 242.656L327.512 262.346ZM378.081 268.432C367.938 268.432 358.809 266.344 350.694 262.167C342.699 257.871 336.434 251.964 331.899 244.446C327.364 236.928 325.097 228.396 325.097 218.849C325.097 209.302 327.364 200.77 331.899 193.252C336.434 185.734 342.699 179.887 350.694 175.71C358.809 171.414 367.938 169.266 378.081 169.266C388.224 169.266 397.294 171.414 405.289 175.71C413.284 179.887 419.549 185.734 424.084 193.252C428.619 200.77 430.886 209.302 430.886 218.849C430.886 228.396 428.619 236.928 424.084 244.446C419.549 251.964 413.284 257.871 405.289 262.167C397.294 266.344 388.224 268.432 378.081 268.432ZM378.081 245.52C385.241 245.52 391.088 243.133 395.623 238.36C400.277 233.467 402.604 226.964 402.604 218.849C402.604 210.734 400.277 204.29 395.623 199.517C391.088 194.624 385.241 192.178 378.081 192.178C370.921 192.178 365.014 194.624 360.36 199.517C355.706 204.29 353.379 210.734 353.379 218.849C353.379 226.964 355.706 233.467 360.36 238.36C365.014 243.133 370.921 245.52 378.081 245.52ZM468.167 183.407C471.508 178.753 475.983 175.233 481.592 172.846C487.32 170.459 493.883 169.266 501.282 169.266V195.042C498.179 194.803 496.091 194.684 495.017 194.684C487.021 194.684 480.756 196.951 476.222 201.486C471.687 205.901 469.42 212.584 469.42 221.534V267H441.496V170.698H468.167V183.407ZM607.548 170.698V250.89C607.548 268.551 603.073 281.678 594.123 290.27C585.173 298.862 572.165 303.158 555.101 303.158C546.031 303.158 537.439 302.024 529.325 299.757C521.329 297.49 514.587 294.208 509.098 289.912L520.196 269.864C524.253 273.205 529.205 275.831 535.053 277.74C540.9 279.649 546.807 280.604 552.774 280.604C562.082 280.604 568.884 278.456 573.18 274.16C577.476 269.864 579.624 263.301 579.624 254.47V251.248C576.044 254.828 571.807 257.573 566.915 259.482C562.022 261.391 556.771 262.346 551.163 262.346C538.513 262.346 528.489 258.766 521.091 251.606C513.692 244.327 509.993 233.467 509.993 219.028V170.698H537.917V214.911C537.917 230.544 544.42 238.36 557.428 238.36C564.11 238.36 569.48 236.212 573.538 231.916C577.595 227.501 579.624 220.997 579.624 212.405V170.698H607.548Z" fill="white"/>
</svg>
